<svg version="1.1" viewBox="0 0 90 25" xml:space="preserve" xmlns="http://www.w3.org/2000/svg"><title>Admiral logo</title>
    <path d="m12.04 8.9933h3.68v13.333h-3.6933l-0.17333-1.3867q-0.52 0.77333-1.3333 1.2533-0.81333 0.48-1.9067 0.48-1.4933 0-2.7867-0.56-1.2933-0.56-2.28-1.5467t-1.5467-2.28q-0.54667-1.3067-0.54667-2.8 0-1.4267 0.52-2.6667 0.52-1.24 1.4667-2.1867 0.94667-0.94667 2.1733-1.48 1.24-0.53333 2.6667-0.53333 1.2267 0 2.2 0.52 0.98667 0.52 1.72 1.32zm-3.52 10.147q0.90667 0 1.64-0.46667 0.73334-0.46667 1.16-1.2533 0.42667-0.8 0.42667-1.76 0-0.97333-0.42667-1.76t-1.16-1.2533q-0.73333-0.46667-1.64-0.46667-0.92 0-1.6667 0.46667-0.74667 0.46667-1.1867 1.2667-0.44 0.78667-0.44 1.7467t0.44 1.76q0.45333 0.78667 1.2 1.2533 0.74667 0.46667 1.6533 0.46667zm18.4-16.813h3.68v20h-3.68v-1.4133q-0.61333 0.77333-1.52 1.2667t-2.0667 0.49333q-1.4533 0-2.72-0.54667t-2.24-1.5067q-0.96-0.97333-1.5067-2.24-0.54667-1.2667-0.54667-2.72t0.54667-2.72q0.54667-1.2667 1.5067-2.2267 0.97334-0.97333 2.24-1.52t2.72-0.54667q1.16 0 2.0667 0.49333 0.90667 0.48 1.52 1.2667zm-3.5333 16.813q0.90667 0 1.64-0.46667 0.73333-0.46667 1.16-1.2533 0.42667-0.8 0.42667-1.76 0-0.97333-0.42667-1.76-0.42667-0.78667-1.16-1.2533t-1.64-0.46667q-0.92 0-1.6667 0.46667-0.74667 0.46667-1.1867 1.2667-0.44 0.78667-0.44 1.7467t0.44 1.76q0.45333 0.78667 1.2 1.2533 0.74667 0.46667 1.6533 0.46667zm9.4133 3.1867v-13.333h3.68v0.98667q0.68-0.64 1.5733-1 0.89334-0.36 1.8933-0.36 1.36 0 2.4933 0.62667 1.1467 0.62667 1.84 1.6667 0.70667-1.04 1.84-1.6667t2.48-0.62667q1.4533 0 2.6267 0.70667 1.1867 0.70667 1.8933 1.8933 0.70667 1.1733 0.70667 2.6267v8.48h-3.68v-7.4667q0-0.69333-0.34667-1.2533-0.33333-0.57333-0.89334-0.90667-0.56-0.34667-1.2533-0.34667t-1.2667 0.33333q-0.56 0.33333-0.90667 0.90667-0.33333 0.56-0.33333 1.2667v7.4667h-3.68v-7.4667q0-0.70667-0.33333-1.2667-0.33333-0.57333-0.90667-0.90667-0.56-0.33333-1.2533-0.33333-0.68 0-1.2533 0.34667-0.56 0.33333-0.90667 0.90667-0.33333 0.56-0.33333 1.2533v7.4667zm22.693-13.333h3.68v13.333h-3.68zm1.8667-1.5333q-0.8 0-1.3467-0.53333-0.54667-0.53333-0.54667-1.32t0.54667-1.32q0.54667-0.53333 1.3333-0.53333 0.78667 0 1.32 0.53333 0.54667 0.53333 0.54667 1.32t-0.53333 1.32q-0.52 0.53333-1.32 0.53333zm3.9073 14.867-0.013333-13.333h3.68l0.01333 0.98667q0.66667-0.64 1.56-1 0.90667-0.36 1.9067-0.36 0.73333 0 1.4667 0.21333l-1.4533 3.72q-0.48-0.2-0.97333-0.2-0.69334 0-1.2667 0.33333t-0.90667 0.90667q-0.33333 0.56-0.33333 1.2667v7.4667zm18.226-13.333h3.68v13.333h-3.6933l-0.17333-1.3867q-0.52 0.77333-1.3333 1.2533-0.81333 0.48-1.9067 0.48-1.4933 0-2.7867-0.56-1.2933-0.56-2.28-1.5467t-1.5467-2.28q-0.54667-1.3067-0.54667-2.8 0-1.4267 0.52-2.6667 0.52-1.24 1.4667-2.1867 0.94667-0.94667 2.1733-1.48 1.24-0.53333 2.6667-0.53333 1.2267 0 2.2 0.52 0.98667 0.52 1.72 1.32zm-3.52 10.147q0.90667 0 1.64-0.46667 0.73333-0.46667 1.16-1.2533 0.42667-0.8 0.42667-1.76 0-0.97333-0.42667-1.76t-1.16-1.2533q-0.73334-0.46667-1.64-0.46667-0.92 0-1.6667 0.46667-0.74667 0.46667-1.1867 1.2667-0.44 0.78667-0.44 1.7467t0.44 1.76q0.45333 0.78667 1.2 1.2533 0.74667 0.46667 1.6533 0.46667zm8.8927 3.1867v-20h3.68v20z"
          fill="#000" aria-label="admiral"/></svg>
